<svg xmlns="http://www.w3.org/2000/svg" viewBox="0 0 1200 1200">
  <defs>
    <radialGradient id="gradient" fx="0.5" fy="0.5" r="1" cx="0.5" cy="0">
      <stop offset="0%" stop-color="red" />
      <stop offset="100%" stop-color="gold" />
    </radialGradient>
  </defs>
  <rect x="0" y="0" width="1200" height="1200" fill="url('#gradient')" />
  <path
    d="M643.2,468.1c2.9,3,6.2,5.7,10,7.7C649,477,643,472.6,643.2,468.1zM1090.2,306.2c18.9,4.3-2.4,47.6-5.1,60.9c-16.5,51.6-65.6,87.8-107.1,110.3c43.7-13,80.9-45.2,116.1-70.5c-20,94.6-217.6,132.5-94.8,106c21.8-2.7,40.3-15.9,57.5-27.8c0.4,14.5-10.9,26.5-20.8,35.9c-26.4,25.1-65.5,26-94.5,46.1c10.7,10.8,45.9-18.3,21,4.4c-34.8,21.6-77.8,9.6-116.1,14.5c57.7,22.2,122.7-0.4,174.7-27.8c24.8-23.1,28.2-24.4,11.6,7.6c-19.4,15.8-41.3,28.8-65.1,36.9c-79.9,28.9-13.2,22,23.1,1.2c-31.8,62.7-137.4,66.3-187.7,24.3c34.4,50.3,15.4,161.5-51.1,167.8c12.3-15.2,27.3-36,17.1-56.3c-6.7,20-12.4,44.3-29.7,59.7c-0.4,0.4-0.7,1.7-1.1,2.2c-0.4,0.8-0.9,1.5-1.5,2.2c-1.1,1.5-2.5,2.9-3.9,4.1c-3.2,2.8-6.9,5-10.7,6.8c-8,3.8-17.1,6.1-26,6.2c-6.4,0.1-14.7-1-18.3-7c-0.6-1-1-2.1-1.3-3.2c14-8.6,30.6-16.6,37.5-32.6c15.2-21.6,38.6-54.9,29.9-81.3c-4.4,22-11.8,45.8-29.4,60.8c-15.4,8.8-40.3,6.5-51.9-7.7c16.2-11.7,33.2-22.1,37.4-43.9c-38.4,50.3,10.1-82-17.3-111.1c78.6-30-44.1-104.7,69.1-160c25.3-12.8,49.7-30.2,72.1-45.8c14.3-1.9,20.1-39.9,24.1-21.6c3.5,6.1,1.6,13.2,1.1,19.8c-0.3,7.5-3.5,13.6-4.6,20.7c-5.1,5.3-17.3,19-3,8.1c26.6-9,49-26.6,71.4-40.9c12.7-4,40.1-63.1,36.2-24.7c-3.6,25.7-19.1,43.4-35.5,62.4c35.7-11.2,70.3-39.3,87-73.5c3.7-6.6,7.6-13.2,10.4-20.5c-2.8-25.8,17.8-2.7,16,9.7c1.4,51.5-41.3,79.9-78.5,106.4C1006.1,404.5,1071.1,371.6,1090.2,306.2M831.3,421.1C831.5,424.4,834.2,419.5,831.3,421.1M946.3,435.1C946.4,438.4,949.2,433.5,946.3,435.1M974.4,477.1C973.6,481.1,978.3,476.3,974.4,477.1M843.3,584.3C843.8,584.8,843.8,584.8,843.3,584.3M700.3,704.1C700.5,707.5,703.2,702.5,700.3,704.1zM108.6,326.5c2-33.7,13.5,3.7,21.4,13c23.5,33.7,55.7,61.8,95,73.3c37.7,11.7-54.3-27.8-33.6-94.5c3.3-10.5,9.2,9,12.5,12.6c10.5,17.4,26.2,30.7,42.4,42.8c28.4,15.2,59.2,38.8,91.6,41.1c-0.2-14.4-11.5-88.2,12.2-47.6c12,32.5,48.9,42.8,78.8,53.5c36.3,20.9,97.2,50.3,82.1,102.5c-15.1,28.4-10.8,62.9,18.6,79.9c-19,33.8-13.7,76.4,2.6,110.4c-10.3-37.7-19.7-81.3,5-116.2c17-27.7,23.8-60.1,31.9-91.2c-14-3.6-27.3-24.9-12.8-35.3c-9.2,18.7,20.2,31.7,21.6,8.4c-12.7-18.3-77.2-12.6-68-41.1c12.6,17.7,36.9,10.4,55,15.1c-66.1-17.5-62.1-84.7-39.8-43.4c6.4,11.9,13.9,8.8,7.2-3.5c-1.1-7.4-0.5-17.6,5.4-21.9c1.8,6.4,2.1,13.7,5.6,19.8c3.1,12.8,24,14.8,35.2,13.3c-3.8-6.6-15.2-37.4-2.2-14.8c26.5,32.2,105,18.9,95.4,80.2c14.5,10,25.3,32.3,14.5,48.5c-13.8,0.2,0.4-27.9-34.7-17.8c24.3,102.9,64.9,150.3-2.1,256c0,41.2,51.6,78,89.5,64.4c-19.2,56.4-73.8,43.4-93.3-6.5c16.7,83,119.1,24.4,5.2,118.3c-6.3,2.9-2.3,17.6-11,14.4c-4.4-18.1-29.2-120.4-28.5-94.9c-1.4,49.4,16.5,94.3-10.6,138.4c-38.6-32.8-6.9-92.7-13.6-138.3c-12.9,28.8-19.4,68.3-27.7,93.2c-21.7-27.3-59-48.2-70.4-81.4c33.1,13.3,63-16.4,69.1-49.7c-12.1,17.6-26.5,55.8-53.1,39.3c-14-9.4-38.6-11.9-42.6-30.3c13.6-1.3,28.8,7.8,41.5-0.5c50.8-20.4,66.9-81.8,29-122.2c8.1,28.1-23.8,0.5-34.9-5.9c7.7,22.4,23.9,42.5,47.7,48.4c-20.9,37.7-73.6,0.8-80-30.8c-3.3,29.3,30.2,84.6,59.9,53.6c3.8,14.9-4.8,36.2-22.8,34.2c-56.4,7.7-76.4-54.7-83.9-98.4c-3.2,20.2,3.1,40.7,4.7,59.1c-20.9-15.1-31.8-40.2-38.2-64.4c-6.3-27.6,6.9-54,17.3-78.6c-59.1,38.4-153.9,24.8-194.8-33.8c16.2,0.8,31,18.3,49.8,13.8c-20-14.4-45.3-28-59.5-50.3c-3.1-12,8.5-4.3,12.9,0.1c39.3,29.7,92.7,34.4,139.3,22.1c-64.4,3.7-151.6-17-184.4-78.6c18.2,6.8,32.6,23.7,51.7,30.6c-15.5-23.8,7.9-14.1,17.6-1.4c32.5,21.5,139,16.7,47.3-2.2c-67.9-7.6-131.2-54-161.5-114.5c0.4-9.9-2.3-13.9,7-6.1c21.6,32.9,53,62,94.5,63.1C165.2,449.5,118.9,389.5,108.6,326.5M238.1,416c1.8,1.9,3.9,3.8,6.6,4.1C245.3,416.3,240.6,417.2,238.1,416M628.2,459.2c17.3,16.5,9.6,23.1,43.1,19.8C653.6,479.7,645.7,458.3,628.2,459.2M648.5,498c11.2,1.5,23.2,0,31.4,9.8C676.5,494.9,658.8,495.4,648.5,498M668.3,613.4c-3.3,51.3-39.2,87.2-66.2,127.7c-19.7-39.2-53.8-83.1-56.6-124.6c-15.2,56.1,44.7,89.8,56.7,140.4c20.9-49.4,70.1-84.9,71.1-144.3C682.2,613.4,670.8,602.3,668.3,613.4M587.3,861.2c0,2.3-0.7,4.4,2.4,3.7C589.7,862.5,590.3,860.5,587.3,861.2z"
  />
</svg>
